<svg width="220" height="48" viewBox="0 0 220 48" fill="none" xmlns="http://www.w3.org/2000/svg">
<path d="M142.941 41.552C140.641 41.552 138.571 41 136.731 39.896C134.891 38.7613 133.435 37.228 132.361 35.296C131.319 33.3333 130.797 31.1253 130.797 28.672C130.797 26.188 131.319 23.98 132.361 22.048C133.435 20.116 134.876 18.598 136.685 17.494C138.525 16.3593 140.611 15.792 142.941 15.792C145.057 15.792 146.943 16.252 148.599 17.172C150.255 18.092 151.559 19.334 152.509 20.898L151.957 21.864V6.178H155.407V41H151.957V35.48L152.509 35.986C151.651 37.7647 150.363 39.1447 148.645 40.126C146.959 41.0767 145.057 41.552 142.941 41.552ZM143.125 38.102C144.781 38.102 146.269 37.688 147.587 36.86C148.937 36.032 149.995 34.9127 150.761 33.502C151.559 32.0607 151.957 30.4507 151.957 28.672C151.957 26.8933 151.559 25.2987 150.761 23.888C149.995 22.4467 148.937 21.312 147.587 20.484C146.269 19.656 144.781 19.242 143.125 19.242C141.5 19.242 140.028 19.656 138.709 20.484C137.391 21.312 136.348 22.4313 135.581 23.842C134.845 25.2527 134.477 26.8627 134.477 28.672C134.477 30.4507 134.845 32.0607 135.581 33.502C136.348 34.9127 137.375 36.032 138.663 36.86C139.982 37.688 141.469 38.102 143.125 38.102ZM159.731 41V16.344H163.181V41H159.731ZM159.731 11.79V6.73H163.181V11.79H159.731ZM174.613 41.552C173.049 41.552 171.653 41.2607 170.427 40.678C169.2 40.0647 168.234 39.2367 167.529 38.194C166.823 37.1513 166.471 35.9553 166.471 34.606C166.471 33.318 166.747 32.1527 167.299 31.11C167.851 30.0367 168.709 29.132 169.875 28.396C171.04 27.66 172.527 27.1387 174.337 26.832L183.997 25.222V28.35L175.165 29.822C173.386 30.1287 172.098 30.696 171.301 31.524C170.534 32.352 170.151 33.3333 170.151 34.468C170.151 35.572 170.58 36.5073 171.439 37.274C172.328 38.0407 173.463 38.424 174.843 38.424C176.529 38.424 178.001 38.0713 179.259 37.366C180.516 36.63 181.497 35.6487 182.203 34.422C182.908 33.1953 183.261 31.8307 183.261 30.328V24.072C183.261 22.6 182.724 21.404 181.651 20.484C180.577 19.564 179.182 19.104 177.465 19.104C175.962 19.104 174.643 19.4873 173.509 20.254C172.374 20.99 171.531 21.956 170.979 23.152L167.851 21.45C168.311 20.4073 169.031 19.4567 170.013 18.598C171.025 17.7393 172.175 17.0647 173.463 16.574C174.751 16.0527 176.085 15.792 177.465 15.792C179.274 15.792 180.869 16.1447 182.249 16.85C183.659 17.5553 184.748 18.5367 185.515 19.794C186.312 21.0207 186.711 22.4467 186.711 24.072V41H183.261V36.078L183.767 36.584C183.337 37.504 182.663 38.3473 181.743 39.114C180.853 39.85 179.795 40.448 178.569 40.908C177.373 41.3373 176.054 41.552 174.613 41.552ZM199.603 41.552C197.241 41.552 195.171 40.954 193.393 39.758C191.614 38.562 190.326 36.9367 189.529 34.882L192.427 33.502C193.132 35.0047 194.113 36.2007 195.371 37.09C196.659 37.9793 198.069 38.424 199.603 38.424C201.075 38.424 202.317 38.0713 203.329 37.366C204.341 36.63 204.847 35.6793 204.847 34.514C204.847 33.6553 204.601 32.9807 204.111 32.49C203.62 31.9687 203.053 31.57 202.409 31.294C201.765 31.018 201.197 30.8187 200.707 30.696L197.165 29.684C194.895 29.04 193.255 28.1353 192.243 26.97C191.231 25.8047 190.725 24.4553 190.725 22.922C190.725 21.4807 191.093 20.2233 191.829 19.15C192.565 18.0767 193.561 17.2487 194.819 16.666C196.076 16.0833 197.471 15.792 199.005 15.792C201.09 15.792 202.976 16.344 204.663 17.448C206.38 18.5213 207.591 20.024 208.297 21.956L205.353 23.336C204.739 21.956 203.85 20.8827 202.685 20.116C201.55 19.3187 200.277 18.92 198.867 18.92C197.487 18.92 196.383 19.2727 195.555 19.978C194.727 20.6833 194.313 21.5727 194.313 22.646C194.313 23.474 194.527 24.1333 194.957 24.624C195.386 25.1147 195.877 25.4827 196.429 25.728C197.011 25.9733 197.517 26.1573 197.947 26.28L202.041 27.476C204.034 28.0587 205.583 28.9633 206.687 30.19C207.821 31.4167 208.389 32.858 208.389 34.514C208.389 35.8633 208.005 37.0747 207.239 38.148C206.503 39.2213 205.475 40.0647 204.157 40.678C202.838 41.2607 201.32 41.552 199.603 41.552Z" fill="white"/>
<path d="M142.941 41.552C140.641 41.552 138.571 41 136.731 39.896C134.891 38.7613 133.435 37.228 132.361 35.296C131.319 33.3333 130.797 31.1253 130.797 28.672C130.797 26.188 131.319 23.98 132.361 22.048C133.435 20.116 134.876 18.598 136.685 17.494C138.525 16.3593 140.611 15.792 142.941 15.792C145.057 15.792 146.943 16.252 148.599 17.172C150.255 18.092 151.559 19.334 152.509 20.898L151.957 21.864V6.178H155.407V41H151.957V35.48L152.509 35.986C151.651 37.7647 150.363 39.1447 148.645 40.126C146.959 41.0767 145.057 41.552 142.941 41.552ZM143.125 38.102C144.781 38.102 146.269 37.688 147.587 36.86C148.937 36.032 149.995 34.9127 150.761 33.502C151.559 32.0607 151.957 30.4507 151.957 28.672C151.957 26.8933 151.559 25.2987 150.761 23.888C149.995 22.4467 148.937 21.312 147.587 20.484C146.269 19.656 144.781 19.242 143.125 19.242C141.5 19.242 140.028 19.656 138.709 20.484C137.391 21.312 136.348 22.4313 135.581 23.842C134.845 25.2527 134.477 26.8627 134.477 28.672C134.477 30.4507 134.845 32.0607 135.581 33.502C136.348 34.9127 137.375 36.032 138.663 36.86C139.982 37.688 141.469 38.102 143.125 38.102ZM159.731 41V16.344H163.181V41H159.731ZM159.731 11.79V6.73H163.181V11.79H159.731ZM174.613 41.552C173.049 41.552 171.653 41.2607 170.427 40.678C169.2 40.0647 168.234 39.2367 167.529 38.194C166.823 37.1513 166.471 35.9553 166.471 34.606C166.471 33.318 166.747 32.1527 167.299 31.11C167.851 30.0367 168.709 29.132 169.875 28.396C171.04 27.66 172.527 27.1387 174.337 26.832L183.997 25.222V28.35L175.165 29.822C173.386 30.1287 172.098 30.696 171.301 31.524C170.534 32.352 170.151 33.3333 170.151 34.468C170.151 35.572 170.58 36.5073 171.439 37.274C172.328 38.0407 173.463 38.424 174.843 38.424C176.529 38.424 178.001 38.0713 179.259 37.366C180.516 36.63 181.497 35.6487 182.203 34.422C182.908 33.1953 183.261 31.8307 183.261 30.328V24.072C183.261 22.6 182.724 21.404 181.651 20.484C180.577 19.564 179.182 19.104 177.465 19.104C175.962 19.104 174.643 19.4873 173.509 20.254C172.374 20.99 171.531 21.956 170.979 23.152L167.851 21.45C168.311 20.4073 169.031 19.4567 170.013 18.598C171.025 17.7393 172.175 17.0647 173.463 16.574C174.751 16.0527 176.085 15.792 177.465 15.792C179.274 15.792 180.869 16.1447 182.249 16.85C183.659 17.5553 184.748 18.5367 185.515 19.794C186.312 21.0207 186.711 22.4467 186.711 24.072V41H183.261V36.078L183.767 36.584C183.337 37.504 182.663 38.3473 181.743 39.114C180.853 39.85 179.795 40.448 178.569 40.908C177.373 41.3373 176.054 41.552 174.613 41.552ZM199.603 41.552C197.241 41.552 195.171 40.954 193.393 39.758C191.614 38.562 190.326 36.9367 189.529 34.882L192.427 33.502C193.132 35.0047 194.113 36.2007 195.371 37.09C196.659 37.9793 198.069 38.424 199.603 38.424C201.075 38.424 202.317 38.0713 203.329 37.366C204.341 36.63 204.847 35.6793 204.847 34.514C204.847 33.6553 204.601 32.9807 204.111 32.49C203.62 31.9687 203.053 31.57 202.409 31.294C201.765 31.018 201.197 30.8187 200.707 30.696L197.165 29.684C194.895 29.04 193.255 28.1353 192.243 26.97C191.231 25.8047 190.725 24.4553 190.725 22.922C190.725 21.4807 191.093 20.2233 191.829 19.15C192.565 18.0767 193.561 17.2487 194.819 16.666C196.076 16.0833 197.471 15.792 199.005 15.792C201.09 15.792 202.976 16.344 204.663 17.448C206.38 18.5213 207.591 20.024 208.297 21.956L205.353 23.336C204.739 21.956 203.85 20.8827 202.685 20.116C201.55 19.3187 200.277 18.92 198.867 18.92C197.487 18.92 196.383 19.2727 195.555 19.978C194.727 20.6833 194.313 21.5727 194.313 22.646C194.313 23.474 194.527 24.1333 194.957 24.624C195.386 25.1147 195.877 25.4827 196.429 25.728C197.011 25.9733 197.517 26.1573 197.947 26.28L202.041 27.476C204.034 28.0587 205.583 28.9633 206.687 30.19C207.821 31.4167 208.389 32.858 208.389 34.514C208.389 35.8633 208.005 37.0747 207.239 38.148C206.503 39.2213 205.475 40.0647 204.157 40.678C202.838 41.2607 201.32 41.552 199.603 41.552Z" fill="url(#paint0_linear_2_7)" style="mix-blend-mode:color"/>
<path d="M211.738 41V35.94H215.418V41H211.738Z" fill="white" fill-opacity="0.57"/>
<path d="M211.738 41V35.94H215.418V41H211.738Z" fill="url(#paint1_linear_2_7)" style="mix-blend-mode:color"/>
<path d="M6.542 41V16.344H9.992V20.392L9.532 19.794C10.1147 18.6287 10.9887 17.7087 12.154 17.034C13.35 16.3593 14.7913 16.022 16.478 16.022H18.042V19.472H15.88C14.1013 19.472 12.6753 20.024 11.602 21.128C10.5287 22.232 9.992 23.796 9.992 25.82V41H6.542ZM36.023 41V32.904H18.589V29.914L36.023 6.73H39.243V29.914H43.429V32.904H39.243V41H36.023ZM21.395 31.248L20.981 29.914H36.023V9.904L37.173 10.226L21.395 31.248ZM46.9196 41V16.344H50.3696V21.036L49.8176 20.346C50.4922 18.9047 51.4889 17.7853 52.8076 16.988C54.1569 16.1907 55.6289 15.792 57.2236 15.792C59.1249 15.792 60.8422 16.3287 62.3756 17.402C63.9089 18.4753 64.9976 19.8707 65.6416 21.588L64.6756 21.634C65.2889 19.7327 66.3469 18.2913 67.8496 17.31C69.3829 16.298 71.0696 15.792 72.9096 15.792C74.5656 15.792 76.0836 16.1907 77.4636 16.988C78.8742 17.7853 79.9936 18.8893 80.8216 20.3C81.6802 21.68 82.1096 23.244 82.1096 24.992V41H78.6596V26.326C78.6596 24.8233 78.3836 23.5507 77.8316 22.508C77.3102 21.4653 76.5896 20.668 75.6696 20.116C74.7496 19.5333 73.6916 19.242 72.4956 19.242C71.3302 19.242 70.2722 19.5333 69.3216 20.116C68.3709 20.668 67.6196 21.4807 67.0676 22.554C66.5156 23.5967 66.2396 24.854 66.2396 26.326V41H62.7896V26.326C62.7896 24.8233 62.5136 23.5507 61.9616 22.508C61.4402 21.4653 60.7196 20.668 59.7996 20.116C58.8796 19.5333 57.8216 19.242 56.6256 19.242C55.4296 19.242 54.3562 19.5333 53.4056 20.116C52.4856 20.668 51.7496 21.4807 51.1976 22.554C50.6456 23.5967 50.3696 24.854 50.3696 26.326V41H46.9196ZM98.1729 41.552C95.8423 41.552 93.7263 41 91.8249 39.896C89.9236 38.7613 88.4056 37.228 87.2709 35.296C86.1669 33.3333 85.6149 31.11 85.6149 28.626C85.6149 26.1727 86.1669 23.98 87.2709 22.048C88.3749 20.116 89.8623 18.598 91.7329 17.494C93.6343 16.3593 95.7809 15.792 98.1729 15.792C100.565 15.792 102.696 16.344 104.567 17.448C106.468 18.552 107.956 20.07 109.029 22.002C110.133 23.934 110.685 26.142 110.685 28.626C110.685 31.1407 110.118 33.3793 108.983 35.342C107.848 37.274 106.33 38.792 104.429 39.896C102.558 41 100.473 41.552 98.1729 41.552ZM98.1729 38.102C99.8289 38.102 101.316 37.688 102.635 36.86C103.984 36.032 105.042 34.8973 105.809 33.456C106.606 32.0147 107.005 30.4047 107.005 28.626C107.005 26.8473 106.606 25.2527 105.809 23.842C105.042 22.4313 103.984 21.312 102.635 20.484C101.316 19.656 99.8289 19.242 98.1729 19.242C96.5169 19.242 95.0143 19.656 93.6649 20.484C92.3463 21.312 91.2883 22.4313 90.4909 23.842C89.6936 25.2527 89.2949 26.8473 89.2949 28.626C89.2949 30.4047 89.6936 32.0147 90.4909 33.456C91.2883 34.8973 92.3463 36.032 93.6649 36.86C95.0143 37.688 96.5169 38.102 98.1729 38.102ZM114.7 41V16.344H118.15V21.128L117.368 20.944C117.981 19.3493 118.978 18.092 120.358 17.172C121.768 16.252 123.394 15.792 125.234 15.792C126.982 15.792 128.546 16.1907 129.926 16.988C131.336 17.7853 132.44 18.8893 133.238 20.3C134.066 21.68 134.48 23.244 134.48 24.992V41H131.03V26.326C131.03 24.8233 130.754 23.5507 130.202 22.508C129.68 21.4653 128.929 20.668 127.948 20.116C126.997 19.5333 125.893 19.242 124.636 19.242C123.378 19.242 122.259 19.5333 121.278 20.116C120.296 20.668 119.53 21.4807 118.978 22.554C118.426 23.5967 118.15 24.854 118.15 26.326V41H114.7Z" fill="white" fill-opacity="0.57"/>
<path d="M6.542 41V16.344H9.992V20.392L9.532 19.794C10.1147 18.6287 10.9887 17.7087 12.154 17.034C13.35 16.3593 14.7913 16.022 16.478 16.022H18.042V19.472H15.88C14.1013 19.472 12.6753 20.024 11.602 21.128C10.5287 22.232 9.992 23.796 9.992 25.82V41H6.542ZM36.023 41V32.904H18.589V29.914L36.023 6.73H39.243V29.914H43.429V32.904H39.243V41H36.023ZM21.395 31.248L20.981 29.914H36.023V9.904L37.173 10.226L21.395 31.248ZM46.9196 41V16.344H50.3696V21.036L49.8176 20.346C50.4922 18.9047 51.4889 17.7853 52.8076 16.988C54.1569 16.1907 55.6289 15.792 57.2236 15.792C59.1249 15.792 60.8422 16.3287 62.3756 17.402C63.9089 18.4753 64.9976 19.8707 65.6416 21.588L64.6756 21.634C65.2889 19.7327 66.3469 18.2913 67.8496 17.31C69.3829 16.298 71.0696 15.792 72.9096 15.792C74.5656 15.792 76.0836 16.1907 77.4636 16.988C78.8742 17.7853 79.9936 18.8893 80.8216 20.3C81.6802 21.68 82.1096 23.244 82.1096 24.992V41H78.6596V26.326C78.6596 24.8233 78.3836 23.5507 77.8316 22.508C77.3102 21.4653 76.5896 20.668 75.6696 20.116C74.7496 19.5333 73.6916 19.242 72.4956 19.242C71.3302 19.242 70.2722 19.5333 69.3216 20.116C68.3709 20.668 67.6196 21.4807 67.0676 22.554C66.5156 23.5967 66.2396 24.854 66.2396 26.326V41H62.7896V26.326C62.7896 24.8233 62.5136 23.5507 61.9616 22.508C61.4402 21.4653 60.7196 20.668 59.7996 20.116C58.8796 19.5333 57.8216 19.242 56.6256 19.242C55.4296 19.242 54.3562 19.5333 53.4056 20.116C52.4856 20.668 51.7496 21.4807 51.1976 22.554C50.6456 23.5967 50.3696 24.854 50.3696 26.326V41H46.9196ZM98.1729 41.552C95.8423 41.552 93.7263 41 91.8249 39.896C89.9236 38.7613 88.4056 37.228 87.2709 35.296C86.1669 33.3333 85.6149 31.11 85.6149 28.626C85.6149 26.1727 86.1669 23.98 87.2709 22.048C88.3749 20.116 89.8623 18.598 91.7329 17.494C93.6343 16.3593 95.7809 15.792 98.1729 15.792C100.565 15.792 102.696 16.344 104.567 17.448C106.468 18.552 107.956 20.07 109.029 22.002C110.133 23.934 110.685 26.142 110.685 28.626C110.685 31.1407 110.118 33.3793 108.983 35.342C107.848 37.274 106.33 38.792 104.429 39.896C102.558 41 100.473 41.552 98.1729 41.552ZM98.1729 38.102C99.8289 38.102 101.316 37.688 102.635 36.86C103.984 36.032 105.042 34.8973 105.809 33.456C106.606 32.0147 107.005 30.4047 107.005 28.626C107.005 26.8473 106.606 25.2527 105.809 23.842C105.042 22.4313 103.984 21.312 102.635 20.484C101.316 19.656 99.8289 19.242 98.1729 19.242C96.5169 19.242 95.0143 19.656 93.6649 20.484C92.3463 21.312 91.2883 22.4313 90.4909 23.842C89.6936 25.2527 89.2949 26.8473 89.2949 28.626C89.2949 30.4047 89.6936 32.0147 90.4909 33.456C91.2883 34.8973 92.3463 36.032 93.6649 36.86C95.0143 37.688 96.5169 38.102 98.1729 38.102ZM114.7 41V16.344H118.15V21.128L117.368 20.944C117.981 19.3493 118.978 18.092 120.358 17.172C121.768 16.252 123.394 15.792 125.234 15.792C126.982 15.792 128.546 16.1907 129.926 16.988C131.336 17.7853 132.44 18.8893 133.238 20.3C134.066 21.68 134.48 23.244 134.48 24.992V41H131.03V26.326C131.03 24.8233 130.754 23.5507 130.202 22.508C129.68 21.4653 128.929 20.668 127.948 20.116C126.997 19.5333 125.893 19.242 124.636 19.242C123.378 19.242 122.259 19.5333 121.278 20.116C120.296 20.668 119.53 21.4807 118.978 22.554C118.426 23.5967 118.15 24.854 118.15 26.326V41H114.7Z" fill="url(#paint2_linear_2_7)" style="mix-blend-mode:color"/>
<defs>
<linearGradient id="paint0_linear_2_7" x1="130.334" y1="49.5834" x2="188.207" y2="49.5833" gradientUnits="userSpaceOnUse">
<stop stop-color="#FF0752"/>
<stop offset="0.546875" stop-color="#FB0595"/>
<stop offset="1" stop-color="#7000FF"/>
<stop offset="1" stop-color="#8802C6"/>
</linearGradient>
<linearGradient id="paint1_linear_2_7" x1="207.168" y1="41.25" x2="211.872" y2="41.25" gradientUnits="userSpaceOnUse">
<stop stop-color="#FF0752"/>
<stop offset="0.0001" stop-color="#8802C6"/>
<stop offset="1" stop-color="#7000FF"/>
</linearGradient>
<linearGradient id="paint2_linear_2_7" x1="6.24" y1="49.5834" x2="96.96" y2="49.5833" gradientUnits="userSpaceOnUse">
<stop stop-color="#FF0752"/>
<stop offset="0.0364583" stop-color="#FB0595"/>
<stop offset="1" stop-color="#7000FF"/>
<stop offset="1" stop-color="#8802C6"/>
</linearGradient>
</defs>
</svg>